<?xml version="1.0" encoding="UTF-8"?>
<svg id="vector" xmlns="http://www.w3.org/2000/svg" version="1.1" viewBox="0 0 24 24">
  <defs>
    <style>
      .cls-1 {
        fill: #f2e672;
      }

      .cls-1, .cls-2 {
        stroke-width: 0px;
      }

      .cls-2 {
        fill: #fff;
      }
    </style>
  </defs>
  <rect class="cls-1" x="0" width="24" height="24" rx="5" ry="5"/>
  <g id="group">
    <path id="path" class="cls-2" d="M12,3c-.6,0-1,.5-1,1v8c0,.6.4,1,1,1s1-.4,1-1V4c0-.5-.4-1-1-1ZM17.1,5.9c-.4.4-.4,1,0,1.4,1.1,1.2,1.8,2.8,1.9,4.6,0,3.8-3.1,7.1-6.9,7.2-3.9,0-7.1-3.1-7.1-7s.7-3.5,1.9-4.8c.4-.4.4-1,0-1.4s-1.1-.4-1.4,0c-1.4,1.5-2.4,3.6-2.4,5.9-.1,4.9,3.8,9.1,8.7,9.2,5.1.2,9.3-3.9,9.3-9s-.9-4.5-2.4-6.1c-.4-.4-1-.4-1.4,0Z"/>
  </g>
</svg>